{
  "accessors": [
    {
      "bufferView": 2,
      "componentType": 5126,
      "count": 1210,
      "max": [
        0.08740299940109253,
        0.14217199385166168,
        0.09858100116252899
      ],
      "min": [
        -0.08158700168132782,
        -0.11039300262928009,
        -0.06902100145816803
      ],
      "type": "VEC3"
    },
    {
      "bufferView": 2,
      "byteOffset": 14520,
      "componentType": 5126,
      "count": 1210,
      "max": [
        0.9986814260482788,
        0.9905419945716858,
        0.99773770570755
      ],
      "min": [
        -0.9978681206703186,
        -0.9924148917198181,
        -0.9683897495269775
      ],
      "type": "VEC3"
    },
    {
      "bufferView": 3,
      "componentType": 5126,
      "count": 1210,
      "max": [
        0.9983059763908386,
        0.9929186105728149,
        0.9966474771499634,
        1.0
      ],
      "min": [
        -0.9997655153274536,
        -0.9697460532188416,
        -0.9711711406707764,
        1.0
      ],
      "type": "VEC4"
    },
    {
      "bufferView": 1,
      "componentType": 5126,
      "count": 1210,
      "max": [
        0.9958609938621521,
        0.9994609951972961
      ],
      "min": [
        0.000446999998530373,
        0.000446999998530373
      ],
      "type": "VEC2"
    },
    {
      "bufferView": 0,
      "componentType": 5125,
      "count": 5112,
      "type": "SCALAR"
    }
  ],
  "asset": {
    "extras": {
      "author": "FLO_wav (https://sketchfab.com/flokapokaa)",
      "license": "CC-BY-4.0 (http://creativecommons.org/licenses/by/4.0/)",
      "source": "https://sketchfab.com/3d-models/baseball-cap-53effc8d26434c6da8bf1a9a921e1e52",
      "title": "Baseball Cap"
    },
    "generator": "Sketchfab-15.30.0",
    "version": "2.0"
  },
  "bufferViews": [
    {
      "buffer": 0,
      "byteLength": 20448,
      "name": "floatBufferViews",
      "target": 34963
    },
    {
      "buffer": 0,
      "byteLength": 9680,
      "byteOffset": 20448,
      "byteStride": 8,
      "name": "floatBufferViews",
      "target": 34962
    },
    {
      "buffer": 0,
      "byteLength": 29040,
      "byteOffset": 30128,
      "byteStride": 12,
      "name": "floatBufferViews",
      "target": 34962
    },
    {
      "buffer": 0,
      "byteLength": 19360,
      "byteOffset": 59168,
      "byteStride": 16,
      "name": "floatBufferViews",
      "target": 34962
    }
  ],
  "buffers": [
    {
      "byteLength": 78528,
      "uri": "scene.bin"
    }
  ],
  "extensionsUsed": [
    "KHR_materials_specular"
  ],
  "images": [
    {
      "uri": "textures/Cap_Material_4K_baseColor.png"
    },
    {
      "uri": "textures/Cap_Material_4K_metallicRoughness.png"
    },
    {
      "uri": "textures/Cap_Material_4K_normal.png"
    }
  ],
  "materials": [
    {
      "doubleSided": true,
      "extensions": {
        "KHR_materials_specular": {
          "specularColorFactor": [
            1.0,
            1.0,
            1.0
          ],
          "specularFactor": 0.43123940949153367
        }
      },
      "name": "Cap_Material_4K",
      "normalTexture": {
        "index": 2
      },
      "pbrMetallicRoughness": {
        "baseColorTexture": {
          "index": 0
        },
        "metallicRoughnessTexture": {
          "index": 1
        }
      }
    }
  ],
  "meshes": [
    {
      "name": "Object_0",
      "primitives": [
        {
          "attributes": {
            "NORMAL": 1,
            "POSITION": 0,
            "TANGENT": 2,
            "TEXCOORD_0": 3
          },
          "indices": 4,
          "material": 0,
          "mode": 4
        }
      ]
    }
  ],
  "nodes": [
    {
      "children": [
        1
      ],
      "matrix": [
        1.0,
        0.0,
        0.0,
        0.0,
        0.0,
        2.220446049250313e-16,
        -1.0,
        0.0,
        0.0,
        1.0,
        2.220446049250313e-16,
        0.0,
        0.0,
        0.0,
        0.0,
        1.0
      ],
      "name": "Sketchfab_model"
    },
    {
      "children": [
        2
      ],
      "name": "untitled.obj.cleaner.materialmerger.gles"
    },
    {
      "mesh": 0,
      "name": "Object_2"
    }
  ],
  "samplers": [
    {
      "magFilter": 9729,
      "minFilter": 9987,
      "wrapS": 10497,
      "wrapT": 10497
    }
  ],
  "scene": 0,
  "scenes": [
    {
      "name": "Sketchfab_Scene",
      "nodes": [
        0
      ]
    }
  ],
  "textures": [
    {
      "sampler": 0,
      "source": 0
    },
    {
      "sampler": 0,
      "source": 1
    },
    {
      "sampler": 0,
      "source": 2
    }
  ]
}
